<svg width="186" height="204" viewBox="0 0 186 204" fill="none" xmlns="http://www.w3.org/2000/svg">
<path d="M156.045 0.0194318C154.399 -0.168843 152.912 1.01298 152.724 2.6591L149.656 29.4842C149.467 31.1303 150.649 32.6174 152.295 32.8057C153.942 32.994 155.429 31.8121 155.617 30.166L158.344 6.32147L182.189 9.04868C183.835 9.23695 185.322 8.05513 185.51 6.40901C185.698 4.76289 184.517 3.27581 182.87 3.08754L156.045 0.0194318ZM155.704 3C153.356 4.86653 153.355 4.86536 153.354 4.86443C153.354 4.86444 153.354 4.86374 153.354 4.86375C153.354 4.86378 153.354 4.86475 153.356 4.86667C153.359 4.87051 153.365 4.87814 153.374 4.88952C153.391 4.91228 153.421 4.95008 153.461 5.00274C153.541 5.10807 153.665 5.27279 153.828 5.49547C154.154 5.9409 154.634 6.61789 155.229 7.51502C156.42 9.3098 158.07 11.9823 159.865 15.4411C163.458 22.3631 167.617 32.4041 169.86 44.8424C174.326 69.6088 171.259 104.184 140.298 142.959L142.642 144.831L144.987 146.703C177.063 106.53 180.527 70.1898 175.765 43.7777C173.393 30.6268 168.998 20.0127 165.191 12.677C163.286 9.00699 161.524 6.14991 160.228 4.19739C159.58 3.22086 159.048 2.46975 158.672 1.95549C158.485 1.69833 158.336 1.50031 158.231 1.36285C158.178 1.29412 158.137 1.24053 158.107 1.20224C158.092 1.18309 158.08 1.16778 158.071 1.15631C158.067 1.15058 158.063 1.1458 158.06 1.142C158.058 1.14009 158.057 1.13796 158.056 1.13701C158.054 1.13512 158.053 1.13347 155.704 3ZM142.642 144.831L140.298 142.959C109.336 181.736 74.7058 193.949 47.9031 196.568C34.4629 197.882 22.9473 196.786 14.8044 195.364C10.7352 194.653 7.51541 193.863 5.32776 193.255C4.23419 192.952 3.39932 192.694 2.84604 192.515C2.56942 192.426 2.36328 192.356 2.23046 192.31C2.16405 192.287 2.11599 192.27 2.08662 192.26C2.07194 192.255 2.06193 192.251 2.05665 192.249C2.054 192.248 2.05254 192.248 2.05226 192.248C2.05212 192.248 2.05281 192.248 2.05274 192.248C2.05372 192.248 2.055 192.249 1.02539 195.066C-0.00421536 197.884 -0.00233769 197.885 -0.000160575 197.886C0.000965476 197.886 0.00344706 197.887 0.00569975 197.888C0.0102077 197.889 0.0159166 197.891 0.0228208 197.894C0.0366293 197.899 0.0552198 197.906 0.0785474 197.914C0.125202 197.93 0.190808 197.953 0.275006 197.983C0.443397 198.041 0.686189 198.122 1.0005 198.224C1.62907 198.427 2.544 198.709 3.72221 199.036C6.07814 199.691 9.48992 200.527 13.7724 201.274C22.3332 202.769 34.4024 203.917 48.4868 202.54C76.7333 199.779 112.912 186.874 144.987 146.703L142.642 144.831Z" fill="#2547FE"/>
</svg>
