<svg width="188" height="159" viewBox="0 0 188 159" fill="none" xmlns="http://www.w3.org/2000/svg">
<rect y="65" width="149" height="28" fill="#56DCE7"/>
<rect x="108.799" width="84.3294" height="28" transform="rotate(45 108.799 0)" fill="#56DCE7"/>
<rect width="112.73" height="28" transform="matrix(0.707107 -0.707107 -0.707107 -0.707107 107.799 158.43)" fill="#56DCE7"/>
<path d="M11.5074 86V83.18H12.0674C13.2474 83.18 13.5874 82.74 13.6874 81.4L14.2674 72.4H27.4274V86H24.3274V75.16H17.0474L16.6074 82.06C16.3874 84.86 15.3674 86 12.6474 86H11.5074ZM29.4316 86V72.4H43.9116V75.1H32.5316V77.88H41.8316V80.5H32.5316V83.3H43.9116V86H29.4316ZM48.9049 86.02C46.5649 86.02 45.4049 84.9 45.4049 82.48V75.92C45.4049 73.5 46.5649 72.38 48.9049 72.38H57.8849C60.2049 72.38 61.3649 73.5 61.3649 75.92V77.6H58.3249V76.64C58.3249 75.54 57.9249 75.14 56.8449 75.14H49.9849C48.9049 75.14 48.5049 75.54 48.5049 76.64V81.76C48.5049 82.86 48.8849 83.26 49.9849 83.26H56.8449C57.9249 83.26 58.3249 82.86 58.3249 81.76V80.82H61.3649V82.48C61.3649 84.9 60.2049 86.02 57.8849 86.02H48.9049ZM63.1621 86V72.4H75.8421V75.16H66.2621V86H63.1621ZM80.5455 86.02C78.2055 86.02 77.0455 84.9 77.0455 82.48V75.92C77.0455 73.5 78.2055 72.38 80.5455 72.38H89.6655C91.9855 72.38 93.1455 73.5 93.1455 75.92V82.48C93.1455 84.9 91.9855 86.02 89.6655 86.02H80.5455ZM80.1455 81.76C80.1455 82.86 80.5455 83.26 81.6255 83.26H88.5655C89.6455 83.26 90.0455 82.86 90.0455 81.76V76.64C90.0455 75.54 89.6455 75.14 88.5655 75.14H81.6255C80.5455 75.14 80.1455 75.54 80.1455 76.64V81.76ZM96.278 86V83.32H104.358C105.458 83.32 105.838 82.98 106.038 81.84L106.138 81.26H96.218L94.358 72.4H97.438L98.638 78.58H106.558L107.518 72.4H110.558L108.938 82.38C108.498 84.86 107.538 86 104.718 86H96.278ZM112.092 81.64L111.652 72.4H115.132L114.692 81.64H112.092ZM111.912 86V82.66H114.872V86H111.912Z" fill="#2547FE"/>
</svg>
