<svg width="152" height="108" viewBox="0 0 152 108" fill="none" xmlns="http://www.w3.org/2000/svg">
<g clip-path="url(#clip0_763_923)">
<path d="M150.241 70.6074C147.573 64.7679 141.93 58.4578 134.148 52.2427C134.856 51.5918 135.551 50.9396 136.223 50.2867C147.902 38.9333 152.498 28.6428 149.163 21.3105C147.664 18.015 144.661 15.5061 140.234 13.8534C136.529 12.4703 131.908 11.7443 126.608 11.6242C122.004 10.209 119.789 6.50055 119.465 0C119.8 6.70221 117.848 10.6529 113.101 12.4367C102.237 13.8468 89.8241 17.0264 77.0445 21.7652C76.3827 17.6812 76.0598 13.1861 76.0672 8.25298C76.0594 13.5111 75.6756 18.2665 74.9095 22.5587C58.9837 17.6376 43.5885 14.9158 30.6317 14.8018C30.3509 14.7995 30.0718 14.7983 29.7949 14.7983C13.8984 14.7983 3.60639 18.848 0.774432 26.2375C-0.521094 29.616 -0.189989 33.4921 1.75877 37.7573C4.42674 43.5972 10.0696 49.9069 17.8525 56.1224C17.1434 56.7737 16.4488 57.4255 15.7772 58.0784C4.09759 69.4314 -0.498057 79.7219 2.83642 87.0542C4.33537 90.3497 7.33913 92.859 11.7653 94.5114C15.8198 96.0254 20.9656 96.7583 26.9056 96.7633C30.7855 98.4087 32.6831 102.023 32.9818 108C32.6718 101.795 34.3172 97.944 38.3302 95.9914C49.3297 94.6199 61.9488 91.4202 74.9556 86.5968C75.6174 90.6812 75.9403 95.1774 75.9329 100.111C75.9407 94.8533 76.3245 90.0978 77.091 85.8056C93.0164 90.7268 108.412 93.4485 121.368 93.5625C121.65 93.5652 121.928 93.5664 122.206 93.5664C138.1 93.5664 148.394 89.5164 151.226 82.1272C152.521 78.7483 152.19 74.8722 150.241 70.607L150.241 70.6074ZM113.006 13.9982C118.032 15.2658 120.414 19.023 120.753 25.8075C120.406 18.8653 122.517 14.8779 127.642 13.1908C132.295 13.3805 136.37 14.072 139.68 15.3079C143.701 16.8092 146.409 19.0434 147.731 21.9479C151.122 29.4043 145.165 40.1743 132.944 51.2962C121.183 42.1747 104.875 33.3202 86.5974 26.5311C83.4991 25.3802 80.4055 24.3174 77.326 23.326C77.326 23.3233 77.3249 23.3206 77.3245 23.3175C89.9939 18.593 102.275 15.4219 113.006 13.9978L113.006 13.9982ZM85.5248 41.7077C81.7659 37.3783 79.1858 31.861 77.6814 25.073C80.4489 25.9767 83.2391 26.9441 86.0453 27.9864C90.0509 29.4742 93.9578 31.0621 97.7429 32.7276C93.5291 36.8672 89.4879 39.8598 85.5248 41.7077ZM66.5113 41.6802C62.7242 39.9011 58.8669 37.0658 54.8601 33.1873C57.9412 31.6207 61.1175 30.0978 64.3821 28.6308C67.7826 27.1029 71.1819 25.6927 74.5632 24.3772C73.0627 31.4832 70.4119 37.2145 66.5116 41.6806L66.5113 41.6802ZM54.8367 33.1989C58.7482 37.1767 61.604 41.0034 63.3919 44.7578C55.8413 51.1757 44.7364 54.1377 29.5809 54.1161C44.7364 54.1377 55.8327 57.1315 63.3642 63.571C61.4853 67.4873 58.4488 71.4782 54.2518 75.6356C40.9767 69.7949 29.2338 62.983 20.2155 56.0269C29.0687 48.2039 40.9658 40.2535 54.8367 33.1989ZM66.4749 66.6574C70.2342 70.9871 72.8143 76.5056 74.3192 83.2952C71.5516 82.3915 68.7607 81.421 65.9545 80.3791C61.9488 78.8913 58.0419 77.3034 54.2565 75.6379C58.4706 71.4979 62.5118 68.5057 66.4749 66.6578V66.6574ZM85.4881 66.6845C89.2755 68.4636 93.1324 71.2989 97.1392 75.1774C94.0578 76.744 90.8818 78.267 87.6172 79.7339C84.2172 81.2618 80.8163 82.6793 77.435 83.9948C78.9351 76.8858 81.5863 71.1521 85.4877 66.6845H85.4881ZM97.1627 75.1654C93.2511 71.1877 90.3953 67.3614 88.6078 63.6069C96.1584 57.189 107.263 54.227 122.418 54.2486C107.263 54.227 96.1666 51.2332 88.6351 44.7937C90.5144 40.8774 93.5506 36.8869 97.7476 32.7291C111.023 38.5698 122.766 45.3817 131.784 52.3378C122.93 60.1608 111.034 68.1112 97.163 75.1654H97.1627ZM3.18978 37.1168C1.41946 33.2418 1.10085 29.7671 2.24254 26.7884C4.9312 19.7767 15.1673 16.295 29.6446 16.295C41.662 16.295 56.607 18.7066 72.5707 23.4794C69.6321 24.6457 66.6815 25.8905 63.7332 27.2153C46.0405 35.165 30.3544 44.9633 19.0118 55.0839C11.3425 48.9905 5.79411 42.8164 3.18978 37.1168ZM40.343 94.1849C34.706 93.1453 32.051 89.3669 31.6929 82.1929C32.0642 89.635 29.6177 93.6865 23.6523 95.1415C19.2917 94.9128 15.4614 94.2301 12.3194 93.0568C8.29848 91.5555 5.5899 89.3213 4.2686 86.4164C0.877903 78.96 6.83466 68.1904 19.0551 57.0685C30.816 66.19 47.1244 75.0445 65.402 81.8332C68.5002 82.9841 71.5938 84.047 74.6733 85.0383C74.6741 85.0406 74.6745 85.0433 74.6749 85.046C62.5368 89.5724 50.7482 92.6797 40.343 94.1845V94.1849ZM149.757 81.5767C144.837 94.4109 114.615 95.4173 79.4122 84.8892C82.3566 83.7205 85.3128 82.4769 88.2666 81.1494C105.959 73.1997 121.645 63.4018 132.988 53.2808C140.657 59.3742 146.205 65.5479 148.81 71.2476C150.58 75.1225 150.898 78.5976 149.757 81.5763L149.757 81.5767Z" fill="#2547FE"/>
<path d="M132.69 29.4546V50.7039L130.276 54L132.69 57.3663V78.5455H126.393V57.1559H124.399V78.5455H118.154V57.1559H116.16V78.5455H109.915V57.3663L112.329 54L109.915 50.7039V29.4546H116.16V50.9143H118.154V29.4546H124.399V50.9143H126.393V29.4546H132.69Z" fill="#F6F4E7"/>
<path d="M126.393 50.9144V29.4546H132.69V50.7039L130.276 54L132.69 57.3663V78.5455H126.393V57.1559H124.399V78.5455H118.154V57.1559H116.16V78.5455H109.915V57.3663L112.329 54L109.915 50.7039V29.4546H116.16V50.9144H118.154V29.4546H124.399V50.9144H126.393ZM126.842 51.3594H123.95V29.8996H118.603V51.3594H115.711V29.8996H110.364V50.5593L112.882 53.9973L110.364 57.5083V78.1005H115.711V56.7109H118.603V78.1005H123.95V56.7109H126.842V78.1005H132.241V57.5083L129.724 53.9973L132.241 50.5593V29.8996H126.842V51.3594Z" fill="#2547FE"/>
<path d="M92.0908 29.4546H107.439V78.5455H101.184V68.9377H98.3459V78.5455H92.0908V29.4546ZM98.3459 60.5923H101.184V37.8702H98.3459V60.5923Z" fill="#F6F4E7"/>
<path d="M107.439 29.4546V78.5455H101.184V68.9376H98.3458V78.5455H92.0908V29.4546H107.439ZM101.184 60.5922V37.8702H98.3458V60.5922H101.184ZM101.634 78.1005H106.99V29.8996H92.5404V78.1005H97.8963V68.4926H101.634V78.1005ZM101.634 61.0372H97.8963V37.4252H101.634V61.0372Z" fill="#2547FE"/>
<path d="M74.2676 29.4546H89.6161V68.9377H80.5226V78.5455H74.2676V29.4546ZM80.5226 60.5923H83.3611V37.8702H80.5226V60.5923Z" fill="#F6F4E7"/>
<path d="M80.073 68.4926H89.1665V29.8996H74.7172V78.1005H80.073V68.4926ZM83.361 60.5922V37.8702H80.5226V60.5922H83.361ZM80.5226 78.5455H74.2676V29.4546H89.6161V68.9376H80.5226V78.5455ZM83.8106 61.0372H80.073V37.4252H83.8106V61.0372Z" fill="#2547FE"/>
<path d="M72.287 29.4546V37.8702H67.714V78.5455H61.4589V37.8702H56.9385V29.4546H72.287Z" fill="#F6F4E7"/>
<path d="M67.2645 37.4252H71.8374V29.8996H57.3881V37.4252H61.9086V78.1005H67.2645V37.4252ZM67.714 78.5455H61.459V37.8702H56.9385V29.4546H72.287V37.8702H67.714V78.5455Z" fill="#2547FE"/>
<path d="M54.9579 38.2196H47.7797V41.9046H53.3974V50.2479H47.7797V70.272H54.9579V78.5458H41.5898V29.9458H54.9579V38.2196Z" fill="#F6F4E7"/>
<path d="M47.3348 37.7784H54.513V30.387H42.0347V78.1046H54.513V70.7132H47.3348V49.8067H52.9526V42.3459H47.3348V37.7784ZM47.7797 41.9047H53.3975V50.248H47.7797V70.272H54.9579V78.5458H41.5898V29.9458H54.9579V38.2196H47.7797V41.9047Z" fill="#2547FE"/>
<path d="M23.7656 29.4546H39.1142V68.9377H30.0207V78.5455H23.7656V29.4546ZM30.0207 60.5923H32.8591V37.8702H30.0207V60.5923Z" fill="#F6F4E7"/>
<path d="M29.5711 68.4926H38.6646V29.8996H24.2152V78.1005H29.5711V68.4926ZM32.859 60.5922V37.8702H30.0206V60.5922H32.859ZM30.0206 78.5455H23.7656V29.4546H39.1142V68.9376H30.0206V78.5455ZM33.3086 61.0372H29.5711V37.4252H33.3086V61.0372Z" fill="#2547FE"/>
</g>
<defs>
<clipPath id="clip0_763_923">
<rect width="152" height="108" fill="white"/>
</clipPath>
</defs>
</svg>
