<svg width="562" height="415" viewBox="0 0 562 415" fill="none" xmlns="http://www.w3.org/2000/svg">
<g clip-path="url(#clip0_687_9852)">
<path d="M534.982 264.857C525.855 244.689 506.551 222.896 479.926 201.431C482.351 199.183 484.727 196.93 487.024 194.675C526.981 155.464 542.703 119.924 531.296 94.6001C526.168 83.2185 515.892 74.5535 500.749 68.8454C488.073 64.0686 472.264 61.5614 454.133 61.1465C438.381 56.2589 430.806 43.451 429.696 21C430.841 44.1475 424.163 57.792 407.926 63.9525C370.759 68.8227 328.293 79.804 284.573 96.1706C282.309 82.0657 281.205 66.541 281.23 49.5034C281.203 67.6632 279.89 84.0871 277.269 98.9112C222.786 81.9149 170.118 72.5147 125.793 72.1211C124.832 72.1131 123.877 72.1091 122.93 72.1091C68.5471 72.1091 33.3377 86.0952 23.6494 111.616C19.2173 123.285 20.35 136.672 27.0168 151.403C36.1441 171.572 55.4486 193.364 82.0743 214.83C79.6486 217.08 77.2723 219.331 74.9747 221.586C35.0181 260.795 19.2961 296.336 30.7035 321.66C35.8315 333.041 46.1076 341.707 61.2498 347.414C75.1203 352.643 92.7244 355.174 113.045 355.192C126.319 360.875 132.811 373.358 133.832 394C132.772 372.568 138.401 359.269 152.13 352.526C189.76 347.789 232.93 336.738 277.427 320.08C279.691 334.186 280.796 349.715 280.77 366.755C280.797 348.595 282.11 332.171 284.732 317.347C339.214 334.343 391.882 343.744 436.208 344.137C437.171 344.147 438.121 344.15 439.073 344.15C493.448 344.15 528.663 330.163 538.351 304.643C542.783 292.973 541.649 279.586 534.984 264.856L534.982 264.857ZM407.6 69.3458C424.792 73.7236 432.943 86.6997 434.103 110.131C432.917 86.1553 440.138 72.384 457.67 66.5571C473.588 67.2122 487.531 69.6006 498.852 73.869C512.608 79.0541 521.874 86.7704 526.395 96.8017C537.997 122.554 517.616 159.75 475.809 198.162C435.575 166.659 379.783 136.078 317.254 112.63C306.655 108.656 296.072 104.985 285.536 101.561C285.536 101.552 285.532 101.542 285.531 101.532C328.874 85.2146 370.888 74.2626 407.601 69.3444L407.6 69.3458ZM313.585 165.046C300.725 150.094 291.899 131.039 286.752 107.595C296.22 110.716 305.765 114.057 315.365 117.657C329.069 122.795 342.435 128.279 355.384 134.031C340.968 148.328 327.143 158.664 313.585 165.046ZM248.538 164.951C235.583 158.807 222.387 149.014 208.679 135.619C219.22 130.209 230.086 124.949 241.255 119.882C252.888 114.605 264.517 109.735 276.085 105.192C270.951 129.734 261.883 149.528 248.54 164.952L248.538 164.951ZM208.599 135.659C221.981 149.397 231.751 162.613 237.867 175.58C212.036 197.746 174.046 207.976 122.198 207.901C174.046 207.976 212.007 218.315 237.772 240.555C231.345 254.081 220.956 267.864 206.598 282.223C161.184 262.051 121.01 238.525 90.1584 214.5C120.445 187.482 161.146 160.024 208.599 135.659ZM248.414 251.215C261.275 266.169 270.102 285.228 275.25 308.677C265.782 305.556 256.234 302.204 246.634 298.605C232.93 293.467 219.564 287.983 206.614 282.231C221.031 267.933 234.856 257.598 248.414 251.216V251.215ZM313.459 251.308C326.416 257.453 339.611 267.245 353.318 280.64C342.777 286.051 331.911 291.311 320.743 296.377C309.111 301.654 297.477 306.55 285.909 311.093C291.041 286.541 300.111 266.738 313.458 251.308H313.459ZM353.399 280.599C340.017 266.861 330.247 253.646 324.132 240.679C349.963 218.514 387.952 208.284 439.8 208.359C387.952 208.284 349.991 197.944 324.225 175.704C330.655 162.178 341.041 148.396 355.4 134.037C400.814 154.209 440.987 177.735 471.839 201.759C441.551 228.777 400.853 256.236 353.4 280.599H353.399ZM31.9124 149.19C25.8561 135.807 24.7661 123.807 28.6718 113.519C37.8699 89.3029 72.8883 77.2782 122.416 77.2782C163.528 77.2782 214.656 85.6069 269.268 102.091C259.215 106.119 249.121 110.418 239.035 114.994C178.507 142.449 124.844 176.29 86.0402 211.243C59.8031 190.199 40.8219 168.875 31.9124 149.19ZM159.016 346.287C139.731 342.696 130.648 329.647 129.423 304.87C130.693 330.573 122.324 344.565 101.916 349.59C86.9979 348.801 73.8941 346.443 63.1452 342.391C49.3895 337.205 40.1233 329.489 35.6031 319.457C24.0034 293.705 44.3817 256.51 86.1885 218.098C126.423 249.601 182.215 280.181 244.744 303.628C255.343 307.603 265.926 311.273 276.461 314.697C276.464 314.705 276.465 314.714 276.467 314.724C234.942 330.357 194.612 341.088 159.016 346.285V346.287ZM533.327 302.742C516.497 347.067 413.104 350.543 292.673 314.182C302.746 310.146 312.859 305.851 322.965 301.266C383.492 273.81 437.155 239.971 475.959 205.016C502.196 226.061 521.176 247.383 530.085 267.068C536.142 280.451 537.232 292.453 533.326 302.74L533.327 302.742Z" fill="#2547FE"/>
<path d="M474.942 122.727V196.116L466.683 207.499L474.942 219.125V292.272H453.398V218.399H446.576V292.272H425.212V218.399H418.39V292.272H397.026V219.125L405.285 207.499L397.026 196.116V122.727H418.39V196.842H425.212V122.727H446.576V196.842H453.398V122.727H474.942Z" fill="#F6F4E7"/>
<path d="M453.398 196.842V122.727H474.942V196.115L466.683 207.499L474.942 219.125V292.272H453.398V218.399H446.576V292.272H425.212V218.399H418.39V292.272H397.026V219.125L405.285 207.499L397.026 196.115V122.727H418.39V196.842H425.212V122.727H446.576V196.842H453.398ZM454.934 198.379H445.041V124.264H426.748V198.379H416.855V124.264H398.562V195.616L407.176 207.49L398.562 219.616V290.735H416.855V216.862H426.748V290.735H445.041V216.862H454.934V290.735H473.406V219.616L464.792 207.49L473.406 195.616V124.264H454.934V198.379Z" fill="#2547FE"/>
<path d="M336.049 122.727H388.557V292.272H367.158V259.09H357.448V292.272H336.049V122.727ZM357.448 230.267H367.158V151.791H357.448V230.267Z" fill="#F6F4E7"/>
<path d="M388.557 122.727V292.272H367.158V259.089H357.448V292.272H336.049V122.727H388.557ZM367.158 230.267V151.792H357.448V230.267H367.158ZM368.696 290.735H387.019V124.264H337.587V290.735H355.91V257.552H368.696V290.735ZM368.696 231.804H355.91V150.255H368.696V231.804Z" fill="#2547FE"/>
<path d="M275.072 122.727H327.58V259.09H296.471V292.272H275.072V122.727ZM296.471 230.267H306.181V151.791H296.471V230.267Z" fill="#F6F4E7"/>
<path d="M294.932 257.552H326.042V124.264H276.61V290.735H294.932V257.552ZM306.181 230.267V151.792H296.471V230.267H306.181ZM296.471 292.272H275.072V122.727H327.58V259.089H296.471V292.272ZM307.719 231.804H294.932V150.255H307.719V231.804Z" fill="#2547FE"/>
<path d="M268.297 122.727V151.791H252.652V292.272H231.253V151.791H215.789V122.727H268.297Z" fill="#F6F4E7"/>
<path d="M251.114 150.255H266.759V124.264H217.327V150.255H232.792V290.735H251.114V150.255ZM252.652 292.272H231.253V151.792H215.789V122.727H268.297V151.792H252.652V292.272Z" fill="#2547FE"/>
<path d="M209.013 152.999H184.456V165.726H203.675V194.541H184.456V263.699H209.013V292.274H163.28V124.424H209.013V152.999Z" fill="#F6F4E7"/>
<path d="M182.934 151.475H207.491V125.948H164.802V290.75H207.491V265.222H182.934V193.018H202.153V167.25H182.934V151.475ZM184.456 165.726H203.675V194.541H184.456V263.699H209.013V292.274H163.28V124.424H209.013V152.999H184.456V165.726Z" fill="#2547FE"/>
<path d="M102.303 122.727H154.811V259.09H123.702V292.272H102.303V122.727ZM123.702 230.267H133.413V151.791H123.702V230.267Z" fill="#F6F4E7"/>
<path d="M122.164 257.552H153.273V124.264H103.841V290.735H122.164V257.552ZM133.412 230.267V151.792H123.702V230.267H133.412ZM123.702 292.272H102.303V122.727H154.811V259.089H123.702V292.272ZM134.95 231.804H122.164V150.255H134.95V231.804Z" fill="#2547FE"/>
</g>
<rect x="20.5" y="20.5" width="521" height="374" stroke="black"/>
<rect x="0.5" y="0.5" width="561" height="414" stroke="black"/>
<path d="M20.5 394.5H0.5" stroke="black"/>
<path d="M541 394.5H561" stroke="black"/>
<path d="M541.5 20.5H561.5" stroke="black"/>
<path d="M20.5 20.5H0.5" stroke="black"/>
<path d="M20.5 394.5V414.5" stroke="black"/>
<path d="M541.5 394.5V414.5" stroke="black"/>
<path d="M541.5 21V1" stroke="black"/>
<path d="M20.5 21V1" stroke="black"/>
<defs>
<clipPath id="clip0_687_9852">
<rect width="520" height="373" fill="white" transform="translate(21 21)"/>
</clipPath>
</defs>
</svg>
