<svg width="1360" height="495" viewBox="0 0 1360 495" fill="none" xmlns="http://www.w3.org/2000/svg">
<path d="M1360 0V214.137L1330.08 247.353L1360 281.276V494.706H1281.96V279.155H1257.25V494.706H1179.86V279.155H1155.14V494.706H1077.75V281.276L1107.67 247.353L1077.75 214.137V0H1155.14V216.257H1179.86V0H1257.25V216.257H1281.96V0H1360Z" fill="#56DCE7"/>
<path d="M853.565 0H1043.46V494.706H966.074V397.885H930.955V494.706H853.565V0ZM930.955 313.785H966.074V84.8067H930.955V313.785Z" fill="#56DCE7"/>
<path d="M629.378 0H819.276V397.885H706.768V494.706H629.378V0ZM706.768 313.785H741.886V84.8067H706.768V313.785Z" fill="#56DCE7"/>
<path d="M605.005 0V84.8067H548.425V494.706H471.035V84.8067H415.106V0H605.005Z" fill="#56DCE7"/>
<path d="M391.324 84.807H301.578V122.263H371.814V207.07H301.578V410.606H391.324V494.706H224.188V0.707031H391.324V84.807Z" fill="#56DCE7"/>
<path d="M0 0H189.898V397.885H77.39V494.706H0V0ZM77.39 313.785H112.508V84.8067H77.39V313.785Z" fill="#56DCE7"/>
<rect width="507" height="272" transform="matrix(1 -8.74228e-08 -8.74228e-08 -1 853 495)" fill="url(#paint0_linear_785_1453)"/>
<defs>
<linearGradient id="paint0_linear_785_1453" x1="253.5" y1="0" x2="253.5" y2="272" gradientUnits="userSpaceOnUse">
<stop stop-color="#F6F4E7"/>
<stop offset="1" stop-color="#F6F4E7" stop-opacity="0"/>
</linearGradient>
</defs>
</svg>
