<svg width="1440" height="611" viewBox="0 0 1440 611" fill="none" xmlns="http://www.w3.org/2000/svg">
<path d="M1408.35 305.936C1427.62 318.138 1439.31 343.415 1440 371.307V611H1357.45V344.287H1331.3V611H1249.44V344.287H1223.3V610.128H1141.43V363.462C1141.43 339.057 1155.19 317.267 1172.39 305.936V305.064C1153.13 291.99 1141.43 266.713 1141.43 238.822V0L1223.3 0V266.713H1249.44V0L1331.3 0V266.713H1357.45V0L1440 0L1439.31 242.308C1439.31 269.328 1426.93 292.862 1408.35 305.064V305.936Z" fill="#56DCE7"/>
<path d="M903.604 87.1612C903.604 39.2225 933.874 0 971.711 0L1104.49 0V610.128H1022.62V490.717H985.47V610.128H903.604V87.1612ZM985.47 386.996H1022.62V104.593H985.47V386.996Z" fill="#56DCE7"/>
<path d="M799.224 0C837.061 0 867.331 39.2225 867.331 87.1612V404.428C867.331 452.367 837.061 490.717 799.224 490.717H748.316V610.128H666.45V0L799.224 0ZM785.465 386.996V104.593H748.316V386.996H785.465Z" fill="#56DCE7"/>
<path d="M639.996 0V104.593H580.145V610.128H498.279V104.593H439.115V0L639.996 0Z" fill="#56DCE7"/>
<path d="M413.957 104.593H319.02V150.789H393.319V255.382H319.02V506.406H413.957V610.128H237.154V87.1612C237.154 39.2225 267.424 0 305.261 0L413.957 0V104.593Z" fill="#56DCE7"/>
<path d="M132.774 0C170.611 0 200.881 39.2225 200.881 87.1612V404.428C200.881 452.367 170.611 490.717 132.774 490.717H81.8659V610.128H0L0 0L132.774 0ZM119.015 386.996V104.593H81.8659V386.996H119.015Z" fill="#56DCE7"/>
<rect width="348.714" height="73" transform="translate(541.791 299.213) rotate(-10)" fill="#FF9807"/>
<path d="M608.563 336.212C604.876 336.862 602.737 335.42 602.065 331.607L600.242 321.27C599.57 317.457 601.086 315.37 604.773 314.72L618.923 312.225C622.579 311.58 624.718 313.023 625.39 316.836L625.857 319.483L621.067 320.327L620.8 318.815C620.494 317.082 619.753 316.562 618.051 316.862L607.242 318.768C605.54 319.068 605.021 319.81 605.327 321.543L606.749 329.611C607.055 331.344 607.765 331.869 609.498 331.563L620.307 329.657C622.009 329.357 622.528 328.616 622.222 326.882L621.961 325.401L626.751 324.557L627.213 327.172C627.885 330.985 626.368 333.072 622.713 333.717L608.563 336.212ZM640.161 330.608L637.15 313.527L627.065 315.306L626.298 310.957L651.32 306.545L652.087 310.893L642.034 312.666L645.046 329.747L640.161 330.608ZM655.407 327.92L655.158 305.868L673.72 302.595L680.997 323.408L676.175 324.258L674.055 318.133L660.157 320.583L660.26 327.064L655.407 327.92ZM660.09 316.144L672.569 313.943L670.39 307.666L659.99 309.5L660.09 316.144ZM683.34 322.994L679.562 301.565L684.415 300.709L687.293 317.033L700.188 303.549L699.226 298.097L704.08 297.242L707.858 318.671L703.005 319.527L701.138 308.938L688.572 322.072L683.34 322.994ZM683.478 295.578L683.389 295.074L687.17 294.407L687.209 294.627C687.382 295.604 687.812 296.016 689.104 295.788L693.074 295.088C694.366 294.86 694.641 294.389 694.457 293.349L694.419 293.129L698.232 292.456L698.321 292.961C698.882 296.144 697.736 297.385 693.797 298.08L689.669 298.808C685.635 299.519 684.033 298.729 683.478 295.578ZM710.062 318.283L709.278 313.839L710.161 313.684C712.02 313.356 712.434 312.568 712.219 310.429L710.632 296.086L731.368 292.43L735.147 313.859L730.262 314.721L727.25 297.64L715.779 299.663L717.003 310.657C717.435 315.13 716.144 317.21 711.858 317.966L710.062 318.283ZM738.305 313.303L734.526 291.873L754.506 288.35L755.273 292.699L740.178 295.361L743.19 312.441L738.305 313.303ZM758.566 309.73L758.317 287.678L776.878 284.405L784.155 305.218L779.333 306.068L777.214 299.943L763.316 302.394L763.419 308.874L758.566 309.73ZM763.248 297.954L775.728 295.754L773.549 289.477L763.149 291.31L763.248 297.954ZM786.499 304.805L782.72 283.375L787.574 282.519L790.452 298.844L803.346 285.36L802.385 279.908L807.238 279.052L811.017 300.481L806.164 301.337L804.297 290.749L791.73 303.882L786.499 304.805ZM786.636 277.388L786.547 276.884L790.329 276.217L790.368 276.438C790.54 277.415 790.97 277.826 792.262 277.599L796.233 276.898C797.525 276.671 797.799 276.2 797.616 275.16L797.577 274.939L801.39 274.267L801.479 274.771C802.04 277.954 800.895 279.196 796.955 279.89L792.827 280.618C788.793 281.33 787.192 280.54 786.636 277.388ZM813.498 303.878L812.075 295.811L814.502 295.383C815.4 293.47 815.709 291.173 815.248 288.005L813.759 277.902L834.432 274.257L837.444 291.338L840.596 290.782L842.018 298.849L837.322 299.677L836.667 295.959L817.506 299.337L818.162 303.056L813.498 303.878ZM819.544 294.494L832.559 292.199L830.315 279.467L819.033 281.457L819.91 287.541C820.403 290.703 820.186 292.788 819.544 294.494Z" fill="#1B4571"/>
</svg>
