<svg width="297" height="65" viewBox="0 0 297 65" fill="none" xmlns="http://www.w3.org/2000/svg">
<path d="M296.905 0V28.067L290.374 32.4206L296.905 36.8669V64.8413H279.868V36.589H274.473V64.8413H257.577V36.589H252.182V64.8413H235.287V36.8669L241.818 32.4206L235.287 28.067V0H252.182V28.3449H257.577V0H274.473V28.3449H279.868V0H296.905Z" fill="#1B4571"/>
<path d="M186.344 0H227.801V64.8413H210.906V52.1509H203.239V64.8413H186.344V0ZM203.239 41.1279H210.906V11.1156H203.239V41.1279Z" fill="#1B4571"/>
<path d="M137.401 0H178.858V52.1509H154.296V64.8413H137.401V0ZM154.296 41.1279H161.963V11.1156H154.296V41.1279Z" fill="#1B4571"/>
<path d="M132.08 0V11.1156H119.728V64.8413H102.833V11.1156H90.6226V0H132.08Z" fill="#1B4571"/>
<path d="M85.4308 11.1148H65.8381V16.0242H81.1715V27.1399H65.8381V53.8174H85.4308V64.8405H48.9429V0.0917969H85.4308V11.1148Z" fill="#1B4571"/>
<path d="M0 0H41.4571V52.1509H16.8952V64.8413H0V0ZM16.8952 41.1279H24.5619V11.1156H16.8952V41.1279Z" fill="#1B4571"/>
</svg>
