<svg width="267" height="120" viewBox="0 0 267 120" fill="none" xmlns="http://www.w3.org/2000/svg">
<path d="M266.19 0V51.7024L260.294 59.7222L266.19 67.9127V119.444H250.807V67.4008H245.936V119.444H230.682V67.4008H225.81V119.444H210.556V67.9127L216.452 59.7222L210.556 51.7024V0H225.81V52.2143H230.682V0H245.936V52.2143H250.807V0H266.19Z" fill="#F6F4E7"/>
<path d="M250.807 52.2144V0H266.19V51.7023L260.294 59.7222L266.19 67.9126V119.444H250.807V67.4008H245.936V119.444H230.682V67.4008H225.81V119.444H210.556V67.9126L216.452 59.7222L210.556 51.7023V0H225.81V52.2144H230.682V0H245.936V52.2144H250.807ZM251.904 53.2972H244.84V1.08282H231.778V53.2972H224.714V1.08282H211.652V51.3504L217.803 59.7156L211.652 68.2582V118.362H224.714V66.318H231.778V118.362H244.84V66.318H251.904V118.362H265.094V68.2582L258.943 59.7156L265.094 51.3504V1.08282H251.904V53.2972Z" fill="#1B4571"/>
<path d="M166.904 0H204.565V119.444H189.217V96.0675H182.252V119.444H166.904V0ZM182.252 75.7619H189.217V20.4762H182.252V75.7619Z" fill="#F6F4E7"/>
<path d="M204.565 0V119.444H189.217V96.0673H182.252V119.444H166.904V0H204.565ZM189.217 75.7618V20.4763H182.252V75.7618H189.217ZM190.32 118.362H203.462V1.08282H168.007V118.362H181.149V94.9845H190.32V118.362ZM190.32 76.8446H181.149V19.3935H190.32V76.8446Z" fill="#1B4571"/>
<path d="M123.252 0H160.056V96.0675H138.251V119.444H123.252V0ZM138.251 75.7619H145.057V20.4762H138.251V75.7619Z" fill="#F6F4E7"/>
<path d="M137.173 94.9845H158.978V1.08282H124.33V118.362H137.173V94.9845ZM145.057 75.7618V20.4763H138.251V75.7618H145.057ZM138.251 119.444H123.252V0H160.056V96.0673H138.251V119.444ZM146.135 76.8446H137.173V19.3935H146.135V76.8446Z" fill="#1B4571"/>
<path d="M118.117 0V20.4762H107.151V119.444H92.1522V20.4762H81.3125V0H118.117Z" fill="#F6F4E7"/>
<path d="M106.073 19.3935H117.039V1.08282H82.3906V19.3935H93.2303V118.362H106.073V19.3935ZM107.151 119.444H92.1523V20.4763H81.3125V0H118.117V20.4763H107.151V119.444Z" fill="#1B4571"/>
<path d="M76.1767 20.3346H58.712V29.3912H72.3801V49.8967H58.712V99.1098H76.1767V119.444H43.6519V0H76.1767V20.3346Z" fill="#F6F4E7"/>
<path d="M57.6296 19.2502H75.0943V1.08437H44.7343V118.36H75.0943V100.194H57.6296V48.8123H71.2978V30.4757H57.6296V19.2502ZM58.712 29.3913H72.3802V49.8967H58.712V99.1098H76.1767V119.444H43.6519V0H76.1767V20.3346H58.712V29.3913Z" fill="#1B4571"/>
<path d="M0 0H36.8045V96.0675H14.9991V119.444H0V0ZM14.9991 75.7619H21.8054V20.4762H14.9991V75.7619Z" fill="#F6F4E7"/>
<path d="M13.9209 94.9845H35.7264V1.08282H1.07805V118.362H13.9209V94.9845ZM21.8052 75.7618V20.4763H14.999V75.7618H21.8052ZM14.999 119.444H0V0H36.8045V96.0673H14.999V119.444ZM22.8833 76.8446H13.9209V19.3935H22.8833V76.8446Z" fill="#1B4571"/>
</svg>
