<svg width="267" height="120" viewBox="0 0 267 120" fill="none" xmlns="http://www.w3.org/2000/svg">
<path d="M258.499 0C262.747 0 266.19 3.44357 266.19 7.69142V48.6088C266.19 50.6185 265.548 52.5756 264.358 54.1947C261.935 57.4898 261.913 61.971 264.302 65.2901L264.379 65.3971C265.557 67.0327 266.19 68.9971 266.19 71.0124V111.753C266.19 116.001 262.747 119.444 258.499 119.444C254.251 119.444 250.807 116.001 250.807 111.753V69.8364C250.807 68.4913 249.717 67.4008 248.372 67.4008C247.027 67.4008 245.936 68.4913 245.936 69.8364V111.817C245.936 116.03 242.521 119.444 238.309 119.444C234.096 119.444 230.682 116.03 230.682 111.817V69.8364C230.682 68.4913 229.591 67.4008 228.246 67.4008C226.901 67.4008 225.81 68.4913 225.81 69.8364V111.817C225.81 116.03 222.395 119.444 218.183 119.444C213.971 119.444 210.556 116.03 210.556 111.817V71.0124C210.556 68.9971 211.189 67.0327 212.367 65.3971L212.444 65.2901C214.833 61.971 214.811 57.4898 212.388 54.1947C211.198 52.5756 210.556 50.6185 210.556 48.6088V7.62733C210.556 3.41487 213.971 0 218.183 0C222.395 0 225.81 3.41487 225.81 7.62733V49.7787C225.81 51.1238 226.901 52.2143 228.246 52.2143C229.591 52.2143 230.682 51.1238 230.682 49.7787V7.62734C230.682 3.41488 234.096 0 238.309 0C242.521 0 245.936 3.41487 245.936 7.62733V49.7787C245.936 51.1238 247.027 52.2143 248.372 52.2143C249.717 52.2143 250.807 51.1238 250.807 49.7787V7.69143C250.807 3.44358 254.251 0 258.499 0Z" fill="#1B4571"/>
<path d="M248.372 52.2144C249.717 52.2144 250.807 51.1239 250.807 49.7787V7.69143C250.807 3.44357 254.251 0 258.499 0C262.747 0 266.19 3.44357 266.19 7.69143V48.6088C266.19 50.6184 265.548 52.5756 264.358 54.1947C261.935 57.4898 261.913 61.971 264.302 65.2902L264.379 65.397C265.557 67.0326 266.19 68.997 266.19 71.0124V111.753C266.19 116.001 262.747 119.444 258.499 119.444C254.251 119.444 250.807 116.001 250.807 111.753V69.8365C250.807 68.4913 249.717 67.4008 248.372 67.4008C247.027 67.4008 245.936 68.4913 245.936 69.8365V111.817C245.936 116.03 242.521 119.444 238.309 119.444C234.096 119.444 230.682 116.03 230.682 111.817V69.8365C230.682 68.4913 229.591 67.4008 228.246 67.4008C226.901 67.4008 225.81 68.4913 225.81 69.8365V111.817C225.81 116.03 222.395 119.444 218.183 119.444C213.971 119.444 210.556 116.03 210.556 111.817V71.0124C210.556 68.997 211.189 67.0326 212.367 65.397L212.444 65.2902C214.833 61.971 214.811 57.4898 212.388 54.1947C211.198 52.5756 210.556 50.6184 210.556 48.6088V7.62733C210.556 3.41487 213.971 0 218.183 0C222.395 0 225.81 3.41487 225.81 7.62732V49.7787C225.81 51.1239 226.901 52.2144 228.246 52.2144C229.591 52.2144 230.682 51.1239 230.682 49.7787V7.62732C230.682 3.41487 234.096 0 238.309 0C242.521 0 245.936 3.41487 245.936 7.62732V49.7787C245.936 51.1239 247.027 52.2144 248.372 52.2144ZM251.904 49.7651C251.904 51.7158 250.323 53.2972 248.372 53.2972C246.421 53.2972 244.84 51.7158 244.84 49.7651V7.61372C244.84 4.00681 241.916 1.08282 238.309 1.08282C234.702 1.08282 231.778 4.0068 231.778 7.61372V49.7651C231.778 51.7158 230.197 53.2972 228.246 53.2972C226.295 53.2972 224.714 51.7158 224.714 49.7651V7.61372C224.714 4.00681 221.79 1.08282 218.183 1.08282C214.576 1.08282 211.652 4.0068 211.652 7.61372V48.1238C211.652 50.2199 212.322 52.2613 213.563 53.9501C216.091 57.387 216.114 62.0612 213.621 65.5232L213.537 65.6406C212.311 67.3425 211.652 69.3865 211.652 71.4836V111.831C211.652 115.438 214.576 118.362 218.183 118.362C221.79 118.362 224.714 115.438 224.714 111.831V69.8501C224.714 67.8994 226.295 66.318 228.246 66.318C230.197 66.318 231.778 67.8994 231.778 69.8501V111.831C231.778 115.438 234.702 118.362 238.309 118.362C241.916 118.362 244.84 115.438 244.84 111.831V69.8501C244.84 67.8994 246.421 66.318 248.372 66.318C250.323 66.318 251.904 67.8994 251.904 69.8501V111.767C251.904 115.409 254.857 118.362 258.499 118.362C262.141 118.362 265.094 115.409 265.094 111.767V71.4836C265.094 69.3865 264.435 67.3425 263.209 65.6406L263.125 65.5232C260.632 62.0612 260.655 57.387 263.183 53.9501C264.424 52.2613 265.094 50.2199 265.094 48.1238V7.67783C265.094 4.03551 262.141 1.08282 258.499 1.08282C254.857 1.08282 251.904 4.0355 251.904 7.67782V49.7651Z" fill="#1B4571"/>
<path d="M166.904 10C166.904 4.47716 171.381 0 176.904 0H194.564C200.087 0 204.564 4.47715 204.564 10V111.77C204.564 116.009 201.128 119.444 196.89 119.444C192.652 119.444 189.216 116.009 189.216 111.77V99.5498C189.216 97.6265 187.657 96.0675 185.734 96.0675C183.811 96.0675 182.252 97.6265 182.252 99.5498V111.77C182.252 116.009 178.816 119.444 174.578 119.444C170.34 119.444 166.904 116.009 166.904 111.77V10ZM182.252 72.2796C182.252 74.2028 183.811 75.7619 185.734 75.7619C187.657 75.7619 189.216 74.2028 189.216 72.2796V23.9585C189.216 22.0353 187.657 20.4762 185.734 20.4762C183.811 20.4762 182.252 22.0353 182.252 23.9585V72.2796Z" fill="#1B4571"/>
<path d="M194.564 0C200.087 0 204.564 4.47715 204.564 10V111.77C204.564 116.009 201.128 119.444 196.89 119.444C192.652 119.444 189.216 116.009 189.216 111.77V99.5496C189.216 97.6264 187.657 96.0673 185.734 96.0673C183.811 96.0673 182.252 97.6264 182.252 99.5496V111.771C182.252 116.009 178.816 119.444 174.578 119.444C170.34 119.444 166.904 116.009 166.904 111.771V10C166.904 4.47716 171.381 0 176.904 0H194.564ZM185.734 75.7618C187.657 75.7618 189.216 74.2027 189.216 72.2795V23.9586C189.216 22.0354 187.657 20.4763 185.734 20.4763C183.811 20.4763 182.252 22.0354 182.252 23.9586V72.2795C182.252 74.2027 183.811 75.7618 185.734 75.7618ZM190.319 111.791C190.319 115.42 193.261 118.362 196.89 118.362C200.519 118.362 203.461 115.42 203.461 111.791V11.0828C203.461 5.55997 198.984 1.08282 193.461 1.08282H178.007C172.484 1.08282 168.007 5.55997 168.007 11.0828V111.791C168.007 115.42 170.949 118.362 174.578 118.362C178.207 118.362 181.148 115.42 181.148 111.791V99.5699C181.148 97.0374 183.201 94.9845 185.734 94.9845C188.266 94.9845 190.319 97.0374 190.319 99.5699V111.791ZM190.319 72.2592C190.319 74.7916 188.266 76.8446 185.734 76.8446C183.201 76.8446 181.148 74.7916 181.148 72.2592V23.9789C181.148 21.4464 183.201 19.3935 185.734 19.3935C188.266 19.3935 190.319 21.4464 190.319 23.9789V72.2592Z" fill="#1B4571"/>
<path d="M123.252 10C123.252 4.47716 127.73 0 133.252 0H150.057C155.58 0 160.057 4.47715 160.057 10V86.0675C160.057 91.5903 155.58 96.0675 150.057 96.0675H148.252C142.729 96.0675 138.252 100.545 138.252 106.067V111.945C138.252 116.087 134.894 119.444 130.752 119.444C126.61 119.444 123.252 116.087 123.252 111.945V10ZM138.252 72.3587C138.252 74.2383 139.775 75.7619 141.655 75.7619C143.534 75.7619 145.058 74.2383 145.058 72.3587V23.8793C145.058 21.9998 143.534 20.4762 141.655 20.4762C139.775 20.4762 138.252 21.9998 138.252 23.8793V72.3587Z" fill="#1B4571"/>
<path d="M137.173 104.984C137.173 99.4616 141.651 94.9845 147.173 94.9845H148.979C154.502 94.9845 158.979 90.5073 158.979 84.9845V11.0828C158.979 5.55998 154.502 1.08282 148.979 1.08282H134.33C128.808 1.08282 124.33 5.55997 124.33 11.0828V111.94C124.33 115.487 127.205 118.362 130.752 118.362C134.298 118.362 137.173 115.487 137.173 111.94V104.984ZM141.655 75.7618C143.534 75.7618 145.058 74.2381 145.058 72.3587V23.8794C145.058 21.9999 143.534 20.4763 141.655 20.4763C139.775 20.4763 138.251 21.9999 138.251 23.8794V72.3586C138.251 74.2381 139.775 75.7618 141.655 75.7618ZM138.251 111.945C138.251 116.087 134.894 119.444 130.752 119.444C126.61 119.444 123.252 116.087 123.252 111.945V10C123.252 4.47716 127.73 0 133.252 0H150.057C155.58 0 160.057 4.47715 160.057 10V86.0673C160.057 91.5902 155.58 96.0673 150.057 96.0673H148.251C142.729 96.0673 138.251 100.544 138.251 106.067V111.945ZM146.136 72.3634C146.136 74.8383 144.129 76.8446 141.655 76.8446C139.18 76.8446 137.173 74.8383 137.173 72.3634V23.8747C137.173 21.3998 139.18 19.3935 141.655 19.3935C144.129 19.3935 146.136 21.3998 146.136 23.8747V72.3634Z" fill="#1B4571"/>
<path d="M108.116 0C113.639 0 118.116 4.47715 118.116 10V14.9933C118.116 18.0214 115.662 20.4762 112.634 20.4762C109.606 20.4762 107.151 22.9309 107.151 25.959V111.945C107.151 116.087 103.793 119.444 99.6512 119.444C95.5093 119.444 92.1517 116.087 92.1517 111.945V25.896C92.1517 22.9027 89.7251 20.4762 86.7319 20.4762C83.7386 20.4762 81.312 18.0496 81.312 15.0563V10C81.312 4.47715 85.7892 0 91.312 0H108.116Z" fill="#1B4571"/>
<path d="M106.073 24.8763C106.073 21.8482 108.528 19.3935 111.556 19.3935C114.584 19.3935 117.038 16.9388 117.038 13.9107V10.2382C117.038 5.1818 112.939 1.08282 107.883 1.08282H91.5454C86.4891 1.08282 82.3901 5.1818 82.3901 10.2382V13.9736C82.3901 16.9669 84.8166 19.3935 87.81 19.3935C90.8033 19.3935 93.2299 21.8201 93.2299 24.8134V111.94C93.2299 115.487 96.1049 118.362 99.6513 118.362C103.198 118.362 106.073 115.487 106.073 111.94V24.8763ZM107.151 111.945C107.151 116.087 103.793 119.444 99.6513 119.444C95.5095 119.444 92.1518 116.087 92.1518 111.945V25.8962C92.1518 22.9029 89.7252 20.4763 86.7319 20.4763C83.7386 20.4763 81.312 18.0497 81.312 15.0564V10C81.312 4.47715 85.7892 0 91.312 0H108.116C113.639 0 118.116 4.47715 118.116 10V14.9935C118.116 18.0216 115.662 20.4763 112.634 20.4763C109.606 20.4763 107.151 22.931 107.151 25.9591V111.945Z" fill="#1B4571"/>
<path d="M76.1767 11.6022C76.1767 16.425 72.2671 20.3346 67.4444 20.3346H63.2403C60.7394 20.3346 58.712 22.362 58.712 24.8629C58.712 27.3638 60.7394 29.3912 63.2403 29.3912H65.546C69.3204 29.3912 72.3801 32.4509 72.3801 36.2252V43.0627C72.3801 46.837 69.3204 49.8967 65.546 49.8967C61.7717 49.8967 58.712 52.9564 58.712 56.7307V90.3775C58.712 95.2002 62.6216 99.1098 67.4444 99.1098C72.2671 99.1098 76.1767 103.019 76.1767 107.842V109.444C76.1767 114.967 71.6996 119.444 66.1767 119.444H53.6518C48.129 119.444 43.6519 114.967 43.6519 109.444V10C43.6519 4.47716 48.129 0 53.6519 0H66.1767C71.6996 0 76.1767 4.47715 76.1767 10V11.6022Z" fill="#1B4571"/>
<path d="M57.6296 24.863C57.6296 21.7631 60.1425 19.2502 63.2423 19.2502H66.3619C71.1847 19.2502 75.0943 15.3406 75.0943 10.5179V10.1673C75.0943 5.15094 71.0277 1.08437 66.0114 1.08437H54.7343C49.2115 1.08437 44.7343 5.56152 44.7343 11.0844V108.36C44.7343 113.883 49.2115 118.36 54.7343 118.36H66.0114C71.0277 118.36 75.0943 114.294 75.0943 109.277V108.927C75.0943 104.104 71.1847 100.194 66.3619 100.194C61.5392 100.194 57.6296 96.2846 57.6296 91.4618V55.6465C57.6296 51.8721 60.6893 48.8123 64.4637 48.8123C68.2381 48.8123 71.2978 45.7526 71.2978 41.9782V37.3098C71.2978 33.5354 68.2381 30.4757 64.4637 30.4757H63.2423C60.1425 30.4757 57.6296 27.9628 57.6296 24.863ZM58.712 24.863C58.712 27.3639 60.7394 29.3913 63.2404 29.3913H65.5461C69.3205 29.3913 72.3802 32.4511 72.3802 36.2255V43.0626C72.3802 46.837 69.3205 49.8967 65.5461 49.8967C61.7717 49.8967 58.712 52.9564 58.712 56.7308V90.3775C58.712 95.2002 62.6216 99.1098 67.4444 99.1098C72.2671 99.1098 76.1767 103.019 76.1767 107.842V109.444C76.1767 114.967 71.6996 119.444 66.1767 119.444H53.6518C48.129 119.444 43.6519 114.967 43.6519 109.444V10C43.6519 4.47716 48.129 0 53.6519 0H66.1767C71.6996 0 76.1767 4.47715 76.1767 10V11.6022C76.1767 16.425 72.2671 20.3346 67.4444 20.3346H63.2404C60.7394 20.3346 58.712 22.362 58.712 24.863Z" fill="#1B4571"/>
<path d="M0 10C0 4.47716 4.47715 0 10 0H26.8045C32.3273 0 36.8045 4.47715 36.8045 10V86.0675C36.8045 91.5903 32.3273 96.0675 26.8045 96.0675H24.9991C19.4762 96.0675 14.9991 100.545 14.9991 106.067V111.945C14.9991 116.087 11.6414 119.444 7.49954 119.444C3.35766 119.444 0 116.087 0 111.945V10ZM14.9991 72.3588C14.9991 74.2383 16.5227 75.7619 18.4022 75.7619C20.2817 75.7619 21.8054 74.2383 21.8054 72.3588V23.8793C21.8054 21.9998 20.2817 20.4762 18.4022 20.4762C16.5227 20.4762 14.9991 21.9998 14.9991 23.8793V72.3588Z" fill="#1B4571"/>
<path d="M13.9209 104.984C13.9209 99.4616 18.3981 94.9845 23.9209 94.9845H25.7264C31.2493 94.9845 35.7264 90.5073 35.7264 84.9845V11.0828C35.7264 5.55998 31.2493 1.08282 25.7264 1.08282H11.0781C5.55521 1.08282 1.07805 5.55997 1.07805 11.0828V111.94C1.07805 115.487 3.95303 118.362 7.49949 118.362C11.046 118.362 13.9209 115.487 13.9209 111.94V104.984ZM18.4021 75.7618C20.2816 75.7618 21.8052 74.2381 21.8052 72.3587V23.8794C21.8052 21.9999 20.2816 20.4763 18.4021 20.4763C16.5226 20.4763 14.999 21.9999 14.999 23.8794V72.3586C14.999 74.2381 16.5226 75.7618 18.4021 75.7618ZM14.999 111.945C14.999 116.087 11.6413 119.444 7.49949 119.444C3.35764 119.444 0 116.087 0 111.945V10C0 4.47716 4.47715 0 10 0H26.8045C32.3273 0 36.8045 4.47715 36.8045 10V86.0673C36.8045 91.5902 32.3273 96.0673 26.8045 96.0673H24.999C19.4761 96.0673 14.999 100.544 14.999 106.067V111.945ZM22.8833 72.3634C22.8833 74.8383 20.877 76.8446 18.4021 76.8446C15.9272 76.8446 13.9209 74.8383 13.9209 72.3634V23.8747C13.9209 21.3998 15.9272 19.3935 18.4021 19.3935C20.877 19.3935 22.8833 21.3998 22.8833 23.8747V72.3634Z" fill="#1B4571"/>
</svg>
